<svg width="131" height="24" viewBox="0 0 131 24" fill="none" xmlns="http://www.w3.org/2000/svg">
<path d="M3 8.17994V15.8299C3 16.4799 3.46 17.2599 4.03 17.5799L11.03 21.4699C11.56 21.7699 12.44 21.7699 12.97 21.4699L19.97 17.5799C20.54 17.2699 21 16.4799 21 15.8299V8.17994C21 7.52994 20.54 6.74994 19.97 6.42994L12.97 2.53994C12.44 2.23994 11.56 2.23994 11.03 2.53994L4.03 6.42994C3.46 6.73994 3 7.52994 3 8.17994Z" fill="black"/>
<path d="M36.5966 17.5L33.3125 5.86364H35.5795L37.6761 14.4148H37.7841L40.0227 5.86364H42.0852L44.3295 14.4205H44.4318L46.5284 5.86364H48.7955L45.5114 17.5H43.4318L41.1023 9.33523H41.0114L38.6761 17.5H36.5966ZM53.1392 17.6705C52.2642 17.6705 51.5085 17.4886 50.8722 17.125C50.2396 16.7576 49.7528 16.2386 49.4119 15.5682C49.071 14.8939 48.9006 14.1004 48.9006 13.1875C48.9006 12.2898 49.071 11.5019 49.4119 10.8239C49.7566 10.142 50.2377 9.61174 50.8551 9.23295C51.4725 8.85038 52.1979 8.65909 53.0312 8.65909C53.5691 8.65909 54.0767 8.74621 54.554 8.92045C55.035 9.09091 55.4593 9.35606 55.8267 9.71591C56.1979 10.0758 56.4896 10.5341 56.7017 11.0909C56.9138 11.6439 57.0199 12.303 57.0199 13.0682V13.6989H49.8665V12.3125H55.0483C55.0445 11.9186 54.9593 11.5682 54.7926 11.2614C54.6259 10.9508 54.393 10.7064 54.0938 10.5284C53.7983 10.3504 53.4536 10.2614 53.0597 10.2614C52.6392 10.2614 52.2699 10.3636 51.9517 10.5682C51.6335 10.7689 51.3854 11.0341 51.2074 11.3636C51.0331 11.6894 50.9441 12.0473 50.9403 12.4375V13.6477C50.9403 14.1553 51.0331 14.5909 51.2188 14.9545C51.4044 15.3144 51.6638 15.5909 51.9972 15.7841C52.3305 15.9735 52.7206 16.0682 53.1676 16.0682C53.4669 16.0682 53.7377 16.0265 53.9801 15.9432C54.2225 15.8561 54.4328 15.7292 54.6108 15.5625C54.7888 15.3958 54.9233 15.1894 55.0142 14.9432L56.9347 15.1591C56.8134 15.6667 56.5824 16.1098 56.2415 16.4886C55.9044 16.8636 55.4725 17.1553 54.946 17.3636C54.4195 17.5682 53.8172 17.6705 53.1392 17.6705ZM58.8509 17.5V5.86364H60.9077V10.2159H60.9929C61.099 10.0038 61.2486 9.77841 61.4418 9.53977C61.6349 9.29735 61.8963 9.09091 62.2259 8.92045C62.5554 8.74621 62.9759 8.65909 63.4872 8.65909C64.1615 8.65909 64.7694 8.83144 65.3111 9.17614C65.8565 9.51705 66.2884 10.0227 66.6065 10.6932C66.9285 11.3598 67.0895 12.178 67.0895 13.1477C67.0895 14.1061 66.9323 14.9205 66.6179 15.5909C66.3035 16.2614 65.8755 16.7727 65.3338 17.125C64.7921 17.4773 64.1785 17.6534 63.4929 17.6534C62.9929 17.6534 62.5781 17.5701 62.2486 17.4034C61.919 17.2367 61.6539 17.036 61.4531 16.8011C61.2562 16.5625 61.1027 16.3371 60.9929 16.125H60.8736V17.5H58.8509ZM60.8679 13.1364C60.8679 13.7008 60.9474 14.1951 61.1065 14.6193C61.2694 15.0436 61.5024 15.375 61.8054 15.6136C62.1122 15.8485 62.4834 15.9659 62.919 15.9659C63.3736 15.9659 63.7543 15.8447 64.0611 15.6023C64.3679 15.3561 64.599 15.0208 64.7543 14.5966C64.9134 14.1686 64.9929 13.6818 64.9929 13.1364C64.9929 12.5947 64.9152 12.1136 64.7599 11.6932C64.6046 11.2727 64.3736 10.9432 64.0668 10.7045C63.7599 10.4659 63.3774 10.3466 62.919 10.3466C62.4796 10.3466 62.1065 10.4621 61.7997 10.6932C61.4929 10.9242 61.2599 11.2481 61.1009 11.6648C60.9455 12.0814 60.8679 12.572 60.8679 13.1364ZM74.8636 12.3864V17.5H72.8068V5.86364H74.8182V10.2557H74.9205C75.125 9.76326 75.4413 9.375 75.8693 9.09091C76.3011 8.80303 76.8504 8.65909 77.517 8.65909C78.1231 8.65909 78.6515 8.78598 79.1023 9.03977C79.553 9.29356 79.9015 9.66477 80.1477 10.1534C80.3977 10.642 80.5227 11.2386 80.5227 11.9432V17.5H78.4659V12.2614C78.4659 11.6742 78.3144 11.2178 78.0114 10.892C77.7121 10.5625 77.2917 10.3977 76.75 10.3977C76.3864 10.3977 76.0606 10.4773 75.7727 10.6364C75.4886 10.7917 75.2652 11.017 75.1023 11.3125C74.9432 11.608 74.8636 11.9659 74.8636 12.3864ZM86.4261 17.6705C85.5739 17.6705 84.8352 17.483 84.2102 17.108C83.5852 16.733 83.1004 16.2083 82.7557 15.5341C82.4148 14.8598 82.2443 14.072 82.2443 13.1705C82.2443 12.2689 82.4148 11.4792 82.7557 10.8011C83.1004 10.1231 83.5852 9.59659 84.2102 9.22159C84.8352 8.84659 85.5739 8.65909 86.4261 8.65909C87.2784 8.65909 88.017 8.84659 88.642 9.22159C89.267 9.59659 89.75 10.1231 90.0909 10.8011C90.4356 11.4792 90.608 12.2689 90.608 13.1705C90.608 14.072 90.4356 14.8598 90.0909 15.5341C89.75 16.2083 89.267 16.733 88.642 17.108C88.017 17.483 87.2784 17.6705 86.4261 17.6705ZM86.4375 16.0227C86.8996 16.0227 87.286 15.8958 87.5966 15.642C87.9072 15.3845 88.1383 15.0398 88.2898 14.608C88.4451 14.1761 88.5227 13.6951 88.5227 13.1648C88.5227 12.6307 88.4451 12.1477 88.2898 11.7159C88.1383 11.2803 87.9072 10.9337 87.5966 10.6761C87.286 10.4186 86.8996 10.2898 86.4375 10.2898C85.964 10.2898 85.5701 10.4186 85.2557 10.6761C84.9451 10.9337 84.7121 11.2803 84.5568 11.7159C84.4053 12.1477 84.3295 12.6307 84.3295 13.1648C84.3295 13.6951 84.4053 14.1761 84.5568 14.608C84.7121 15.0398 84.9451 15.3845 85.2557 15.642C85.5701 15.8958 85.964 16.0227 86.4375 16.0227ZM99.2514 11.0795L97.3764 11.2841C97.3234 11.0947 97.2306 10.9167 97.098 10.75C96.9692 10.5833 96.795 10.4489 96.5753 10.3466C96.3556 10.2443 96.0866 10.1932 95.7685 10.1932C95.3404 10.1932 94.9806 10.286 94.6889 10.4716C94.401 10.6572 94.259 10.8977 94.2628 11.1932C94.259 11.447 94.3518 11.6534 94.5412 11.8125C94.7344 11.9716 95.0526 12.1023 95.4957 12.2045L96.9844 12.5227C97.8101 12.7008 98.4238 12.983 98.8253 13.3693C99.2306 13.7557 99.4351 14.2614 99.4389 14.8864C99.4351 15.4356 99.2741 15.9205 98.956 16.3409C98.6416 16.7576 98.2041 17.0833 97.6435 17.3182C97.0829 17.553 96.4389 17.6705 95.7116 17.6705C94.6435 17.6705 93.7836 17.447 93.1321 17C92.4806 16.5492 92.0923 15.9223 91.9673 15.1193L93.973 14.9261C94.0639 15.3201 94.2571 15.6174 94.5526 15.8182C94.848 16.0189 95.2325 16.1193 95.706 16.1193C96.1946 16.1193 96.5866 16.0189 96.8821 15.8182C97.1813 15.6174 97.331 15.3693 97.331 15.0739C97.331 14.8239 97.2344 14.6174 97.0412 14.4545C96.8518 14.2917 96.5563 14.1667 96.1548 14.0795L94.6662 13.767C93.8291 13.5928 93.2098 13.2992 92.8082 12.8864C92.4067 12.4697 92.2079 11.9432 92.2116 11.3068C92.2079 10.7689 92.3537 10.303 92.6491 9.90909C92.9484 9.51136 93.3632 9.20455 93.8935 8.98864C94.4276 8.76894 95.0431 8.65909 95.7401 8.65909C96.7628 8.65909 97.5677 8.87689 98.1548 9.3125C98.7457 9.74811 99.1113 10.3371 99.2514 11.0795ZM105.493 8.77273V10.3636H100.476V8.77273H105.493ZM101.714 6.68182H103.771V14.875C103.771 15.1515 103.813 15.3636 103.896 15.5114C103.983 15.6553 104.097 15.7538 104.237 15.8068C104.377 15.8598 104.533 15.8864 104.703 15.8864C104.832 15.8864 104.949 15.8769 105.055 15.858C105.165 15.839 105.249 15.822 105.305 15.8068L105.652 17.4148C105.542 17.4527 105.385 17.4943 105.18 17.5398C104.98 17.5852 104.733 17.6117 104.442 17.6193C103.927 17.6345 103.463 17.5568 103.05 17.3864C102.637 17.2121 102.309 16.9432 102.067 16.5795C101.828 16.2159 101.711 15.7614 101.714 15.2159V6.68182ZM107.213 17.5V8.77273H109.27V17.5H107.213ZM108.247 7.53409C107.921 7.53409 107.641 7.42614 107.406 7.21023C107.171 6.99053 107.054 6.72727 107.054 6.42045C107.054 6.10985 107.171 5.84659 107.406 5.63068C107.641 5.41098 107.921 5.30114 108.247 5.30114C108.577 5.30114 108.857 5.41098 109.088 5.63068C109.323 5.84659 109.44 6.10985 109.44 6.42045C109.44 6.72727 109.323 6.99053 109.088 7.21023C108.857 7.42614 108.577 7.53409 108.247 7.53409ZM113.442 12.3864V17.5H111.385V8.77273H113.351V10.2557H113.453C113.654 9.76705 113.974 9.37879 114.413 9.09091C114.857 8.80303 115.404 8.65909 116.055 8.65909C116.658 8.65909 117.182 8.78788 117.629 9.04545C118.08 9.30303 118.429 9.67614 118.675 10.1648C118.925 10.6534 119.048 11.2462 119.044 11.9432V17.5H116.987V12.2614C116.987 11.678 116.836 11.2216 116.533 10.892C116.233 10.5625 115.819 10.3977 115.288 10.3977C114.929 10.3977 114.608 10.4773 114.328 10.6364C114.052 10.7917 113.834 11.017 113.675 11.3125C113.519 11.608 113.442 11.9659 113.442 12.3864ZM124.93 20.9545C124.192 20.9545 123.557 20.8542 123.027 20.6534C122.497 20.4564 122.071 20.1913 121.749 19.858C121.427 19.5246 121.203 19.1553 121.078 18.75L122.93 18.3011C123.014 18.4716 123.135 18.6402 123.294 18.8068C123.453 18.9773 123.667 19.1174 123.936 19.2273C124.209 19.3409 124.552 19.3977 124.964 19.3977C125.548 19.3977 126.031 19.2557 126.413 18.9716C126.796 18.6913 126.987 18.2292 126.987 17.5852V15.9318H126.885C126.779 16.1439 126.624 16.3617 126.419 16.5852C126.218 16.8087 125.951 16.9962 125.618 17.1477C125.288 17.2992 124.874 17.375 124.374 17.375C123.703 17.375 123.095 17.2178 122.55 16.9034C122.008 16.5852 121.576 16.1117 121.254 15.483C120.936 14.8504 120.777 14.0587 120.777 13.108C120.777 12.1496 120.936 11.3409 121.254 10.6818C121.576 10.0189 122.01 9.51705 122.555 9.17614C123.101 8.83144 123.709 8.65909 124.379 8.65909C124.891 8.65909 125.311 8.74621 125.641 8.92045C125.974 9.09091 126.239 9.29735 126.436 9.53977C126.633 9.77841 126.783 10.0038 126.885 10.2159H126.999V8.77273H129.027V17.642C129.027 18.3883 128.849 19.0057 128.493 19.4943C128.137 19.983 127.65 20.3485 127.033 20.5909C126.415 20.8333 125.714 20.9545 124.93 20.9545ZM124.947 15.7614C125.383 15.7614 125.754 15.6553 126.061 15.4432C126.368 15.2311 126.601 14.9261 126.76 14.5284C126.919 14.1307 126.999 13.6534 126.999 13.0966C126.999 12.5473 126.919 12.0663 126.76 11.6534C126.605 11.2405 126.374 10.9205 126.067 10.6932C125.764 10.4621 125.391 10.3466 124.947 10.3466C124.489 10.3466 124.107 10.4659 123.8 10.7045C123.493 10.9432 123.262 11.2708 123.107 11.6875C122.951 12.1004 122.874 12.5701 122.874 13.0966C122.874 13.6307 122.951 14.0985 123.107 14.5C123.266 14.8977 123.499 15.2083 123.805 15.4318C124.116 15.6515 124.497 15.7614 124.947 15.7614Z" fill="black"/>
</svg>
